<svg width="16.000000" height="12.000000" viewBox="0 0 16 12" fill="none" xmlns="http://www.w3.org/2000/svg" xmlns:xlink="http://www.w3.org/1999/xlink">
	<desc>
			Created with Pixso.
	</desc>
	<defs/>
	<path id="Vector" d="M0.31 3.96C1.03 4.53 1.93 5.21 5.12 7.53C5.75 8 6.9 9.03 8 9.03C9.12 9.03 10.25 8 10.9 7.53C14.09 5.21 15 4.53 15.71 3.96C15.84 3.87 16 3.96 16 4.12L16 10.5C16 11.34 15.34 12 14.5 12L1.5 12C0.68 12 0 11.34 0 10.5L0 4.12C0 3.96 0.18 3.87 0.31 3.96ZM8 8C7.28 8.03 6.25 7.09 5.71 6.71C1.56 3.71 1.25 3.43 0.31 2.68C0.12 2.56 0 2.34 0 2.09L0 1.5C0 0.68 0.68 0 1.5 0L14.5 0C15.34 0 16 0.68 16 1.5L16 2.09C16 2.34 15.9 2.56 15.71 2.68C14.78 3.43 14.46 3.71 10.31 6.71C9.78 7.09 8.75 8.03 8 8Z" fill="#5C8EE6" fill-opacity="1.000000" fill-rule="evenodd"/>
</svg>
